<svg width="18" height="18" viewBox="0 0 18 18" fill="none" xmlns="http://www.w3.org/2000/svg">
<path d="M13.051 2.22133L13.9585 1.31384C14.7103 0.562054 15.9292 0.562054 16.6809 1.31384C17.4327 2.06563 17.4327 3.28452 16.6809 4.03631L15.7734 4.9438M13.051 2.22133L6.94657 8.3257C6.48136 8.791 6.15133 9.37381 5.99176 10.0121L5.32812 12.6667L7.9827 12.003C8.62097 11.8435 9.20379 11.5134 9.66909 11.0482L15.7734 4.9438M13.051 2.22133L15.7734 4.9438" stroke="#316EED" stroke-width="1.375" stroke-linejoin="round"/>
<path d="M15.4166 10.3747C15.4166 13.3882 15.4166 14.8949 14.5843 15.9091C14.432 16.0948 14.2618 16.265 14.076 16.4173C13.0619 17.2497 11.5551 17.2497 8.54157 17.2497H8.08333C4.62636 17.2497 2.8979 17.2497 1.82396 16.1757C0.750027 15.1018 0.75 13.3733 0.75 9.91634V9.45801C0.75 6.44448 0.75 4.93773 1.58228 3.92358C1.73466 3.73792 1.90491 3.56766 2.09057 3.41529C3.10472 2.58301 4.61148 2.58301 7.625 2.58301" stroke="#316EED" stroke-width="1.375" stroke-linecap="round" stroke-linejoin="round"/>
</svg>
