<svg width="24" height="26" viewBox="0 0 24 26" fill="none" xmlns="http://www.w3.org/2000/svg">
<path d="M8.5 24.6667L8.50224 19.9972C8.50275 18.9115 8.50301 18.3686 8.68039 17.9405C8.91736 17.3683 9.37204 16.9138 9.94422 16.6772C10.3726 16.5 10.9155 16.5 12.0012 16.5C13.0872 16.5 13.6303 16.5 14.0588 16.6773C14.6312 16.9142 15.0858 17.3688 15.3227 17.9412C15.5 18.3697 15.5 18.9128 15.5 19.9988V24.6667" stroke="#272B35" stroke-width="1.75"/>
<path d="M6.26989 4.55584L5.10321 5.46648C3.33378 6.84762 2.44906 7.53819 1.97453 8.51189C1.5 9.48558 1.5 10.6104 1.5 12.86V15.2998C1.5 19.7152 1.5 21.9229 2.86683 23.2947C4.23367 24.6663 6.43355 24.6663 10.8333 24.6663H13.1667C17.5664 24.6663 19.7664 24.6663 21.1331 23.2947C22.5 21.9229 22.5 19.7152 22.5 15.2998V12.86C22.5 10.6104 22.5 9.48558 22.0255 8.51189C21.5509 7.53819 20.6662 6.84762 18.8968 5.46648L17.7301 4.55584C14.9775 2.40729 13.6011 1.33301 12 1.33301C10.3989 1.33301 9.02251 2.40729 6.26989 4.55584Z" stroke="#272B35" stroke-width="1.75" stroke-linejoin="round"/>
</svg>
