<svg width="16" height="16" viewBox="0 0 16 16" fill="none" xmlns="http://www.w3.org/2000/svg">
<path d="M11.6667 14.6683C13.1394 14.6683 14.3333 13.4744 14.3333 12.0016C14.3333 11.2906 14.0551 10.6447 13.6016 10.1666C13.2638 9.81056 13.0949 9.63249 13.0475 9.51356C13 9.39463 13 9.23729 13 8.92263V2.66829C13 1.93191 12.4031 1.33496 11.6667 1.33496C10.9303 1.33496 10.3333 1.93191 10.3333 2.66829V8.92263C10.3333 9.23729 10.3333 9.39463 10.2859 9.51356C10.2385 9.63249 10.0695 9.81056 9.73173 10.1666C9.2782 10.6447 9 11.2906 9 12.0016C9 13.4744 10.1939 14.6683 11.6667 14.6683Z" stroke="#272B35" stroke-width="1.25" stroke-linecap="round" stroke-linejoin="round"/>
<path d="M6.0277 3.33398V5.77148M6.0277 5.77148V9.56318M6.0277 5.77148L7.39133 4.41732M6.0277 5.77148L4.66406 4.41732M6.0277 9.56318L6.0277 12.0007M6.0277 9.56318L4.66406 10.9173M6.0277 9.56318L7.39133 10.9173M2.75497 6.31315L4.11861 7.66732M4.11861 7.66732L2.75497 9.02145M4.11861 7.66732H7.66406M4.11861 7.66732H1.66406" stroke="#272B35" stroke-width="1.25" stroke-linecap="round" stroke-linejoin="round"/>
</svg>
